<svg xmlns="http://www.w3.org/2000/svg" x="0px" y="0px" viewBox="0 0 1730 2005" enable-background="new 0 0 1730 2005"><defs><filter id="a" filterUnits="userSpaceOnUse" x="-43.71" y="230.768" width="1817.42" height="1817.42"><feColorMatrix values="1 0 0 0 0 0 1 0 0 0 0 0 1 0 0 0 0 0 1 0"/></filter></defs><mask maskUnits="userSpaceOnUse" x="-43.71" y="230.768" width="1817.42" height="1817.42" id="b"><circle fill="#FFF" cx="865" cy="1139.478" r="862.134" filter="url(#a)"/></mask><g mask="url(#b)"><circle fill="#32271E" cx="865" cy="1139.478" r="908.71"/><path fill="#BFB4B3" d="M275.8,1801.812l96.667-290.333c82,128.667,199.333,218,340.667,249.333 c180.12,39.932,319.097-21.119,414.667-58l-94.667,320H275.8V1801.812z"/></g><path fill="#7AC14D" d="M835.8,1707.812c-256.667,0-437.688-193.642-430-431c8-247,153.382-375.661,209-427 c80.599-74.398,269-315,153-848c442,205,632,749,606,1075c-15.557,195.065-93,365-200,479S930.588,1707.812,835.8,1707.812z"/></svg>